<svg width="92" height="122" viewBox="0 0 92 122" fill="none" xmlns="http://www.w3.org/2000/svg">
<path d="M69.3334 41V46H74.3334H80.0001C83.4034 46 86.3334 48.8674 86.3334 52.5V110C86.3334 113.633 83.4034 116.5 80.0001 116.5H12.0001C8.59674 116.5 5.66675 113.633 5.66675 110V52.5C5.66675 48.8674 8.59674 46 12.0001 46H17.6667H22.6667V41V29.5C22.6667 16.3224 33.1901 5.75 46.0001 5.75C58.8101 5.75 69.3334 16.3224 69.3334 29.5V41ZM63.5667 46H68.5667V41V29.5C68.5667 16.9751 58.5201 6.675 46.0001 6.675C33.4801 6.675 23.4334 16.9751 23.4334 29.5V41V46H28.4334H63.5667ZM29.6667 81.25C29.6667 90.2673 36.9368 97.75 46.0001 97.75C55.0634 97.75 62.3334 90.2673 62.3334 81.25C62.3334 72.2327 55.0634 64.75 46.0001 64.75C36.9368 64.75 29.6667 72.2327 29.6667 81.25Z" stroke="white" stroke-width="10"/>
</svg>
