<svg width="272" height="303" viewBox="0 0 272 303" fill="none" xmlns="http://www.w3.org/2000/svg">
<path d="M194.266 82.44L217.386 54.6H195.226V47.08H228.906V53.64L205.946 81.48H229.306V89H194.266V82.44ZM120.607 154.08L137.947 133.2H121.327V127.56H146.587V132.48L129.367 153.36H146.887V159H120.607V154.08ZM78.1767 202.72L89.7367 188.8H78.6567V185.04H95.4967V188.32L84.0167 202.24H95.6967V206H78.1767V202.72Z" fill="white"/>
<path d="M188.412 142.315L217.603 120.926L196.107 115.542L197.934 108.248L230.605 116.43L229.011 122.794L199.976 144.222L222.636 149.897L220.809 157.191L186.819 148.679L188.412 142.315ZM99.5559 193.914L121.449 177.872L105.327 173.834L106.697 168.363L131.2 174.5L130.005 179.273L108.228 195.343L125.223 199.6L123.853 205.071L98.3606 198.686L99.5559 193.914ZM46.5796 230.788L61.1751 220.093L50.4271 217.402L51.3405 213.754L67.676 217.845L66.8791 221.027L52.3613 231.741L63.6913 234.579L62.7778 238.226L45.7828 233.97L46.5796 230.788Z" fill="white"/>
</svg>
